<?xml version="1.0" encoding="UTF-8"?>
<svg width="308px" height="81px" viewBox="0 0 308 81" version="1.1" xmlns="http://www.w3.org/2000/svg" xmlns:xlink="http://www.w3.org/1999/xlink">
    <!-- Generator: Sketch 49.3 (51167) - http://www.bohemiancoding.com/sketch -->
    <title>icono-redime</title>
    <desc>Created with Sketch.</desc>
    <defs></defs>
    <g id="Page-1" stroke="none" stroke-width="1" fill="none" fill-rule="evenodd">
        <g id="Inicio" transform="translate(-988.000000, -637.000000)">
            <g id="Como-participar" transform="translate(186.000000, 528.000000)">
                <g id="Group-8" transform="translate(803.000000, 109.000000)">
                    <g id="icono-redime">
                        <path d="M304.651,4.032 L292.793,4.032 C291.802,4.032 291,3.229 291,2.239 C291,1.248 291.802,0.446 292.793,0.446 L304.651,0.446 C305.641,0.446 306.444,1.248 306.444,2.239 C306.444,3.229 305.641,4.032 304.651,4.032" id="Fill-5" fill="#0ED9B2"></path>
                        <path d="M51.249754,25.842 C50.745754,24.99 51.028754,23.89 51.880754,23.386 L89.305754,1.25 C89.581754,1.086 89.897754,1 90.218754,1 L282,0.554 C282.99,0.554 283.793,1.357 283.793,2.347 C283.793,3.338 282.99,4.14 282,4.14 L90.708754,4.586 L53.706754,26.473 C53.419754,26.642 53.105754,26.723 52.795754,26.723 C52.182754,26.723 51.585754,26.409 51.249754,25.842 Z" id="Fill-8" fill="#0ED9B2"></path>
                        <circle id="Oval-2" fill="#0ED9B2" cx="31" cy="49" r="24"></circle>
                        <circle id="Oval-3" stroke="#0ED9B2" stroke-width="2" cx="31" cy="49" r="31"></circle>
                        <path d="M41.7196069,42.3508679 L38.3904441,42.3508679 C38.9339608,41.761648 39.2667271,40.9751777 39.2667271,40.1122542 C39.2667271,40.1122542 39.2660708,39.9805352 39.2648052,39.9429413 C39.228852,38.878033 38.6481165,37.9283437 37.7114115,37.4023114 C36.7557691,36.8657791 35.6173137,36.8659197 34.6660775,37.402827 L33.152012,38.257313 C32.2037758,38.792486 31.4616962,39.5991125 31.0000234,40.5475831 C30.5383507,39.5991125 29.7962711,38.792486 28.8480817,38.2573599 L27.3340163,37.4027801 C26.38278,36.8659197 25.2443247,36.8657322 24.2886822,37.4022645 C23.3519772,37.9282499 22.7712417,38.8779861 22.7352885,39.9428945 C22.7340229,39.9804883 22.7333667,40.1122073 22.7333667,40.1122073 C22.7333667,40.9751309 23.0661329,41.7616011 23.6096496,42.3508679 L20.28044,42.3508679 C19.5744074,42.3508679 19,42.9253222 19,43.6313548 L19,46.6704545 C19,47.3764871 19.5744074,47.9508945 20.28044,47.9508945 L20.8666599,47.9508945 L20.8666599,59.4704951 C20.8666599,60.1765277 21.4410673,60.7509351 22.1470999,60.7509351 L39.8529001,60.7509351 C40.5589327,60.7509351 41.1333401,60.1765277 41.1333401,59.4704951 L41.1333401,47.9508476 L41.71956,47.9508476 C42.4255926,47.9508476 43,47.3764402 43,46.6704076 L43,43.6313079 C43.0000469,42.9253222 42.4256395,42.3508679 41.7196069,42.3508679 Z M33.676263,39.1862367 L35.1903285,38.3317507 C35.8141891,37.979625 36.5614249,37.9799063 37.1891762,38.3324069 C37.7980836,38.674267 38.175475,39.2897838 38.198725,39.9789883 C38.1995687,40.0045821 38.1999906,40.1122542 38.1999906,40.1122542 C38.1999906,41.3466628 37.1957387,42.3509148 35.96133,42.3509148 L31.563837,42.3509148 C31.723728,41.0314747 32.5026045,39.8485818 33.676263,39.1862367 Z M23.801275,39.9789414 C23.8245719,39.2897838 24.2019633,38.674267 24.8108238,38.3323601 C25.1249807,38.1559691 25.4688564,38.0678439 25.8123571,38.0678439 C26.1553421,38.0678439 26.4979521,38.1557816 26.8096246,38.3317507 L28.3236901,39.1862367 C29.4973486,39.8485818 30.2762251,41.0314747 30.4360692,42.350821 L26.0385762,42.350821 C24.8042145,42.350821 23.7999625,41.3465691 23.7999625,40.1122073 C23.8000094,40.1122542 23.8004313,40.0045352 23.801275,39.9789414 Z M28.6000656,49.5733351 L26.4043426,49.5733351 C26.1097795,49.5733351 25.8709978,49.8121637 25.8709978,50.1066799 C25.8709978,50.4011961 26.1097795,50.6400247 26.4043426,50.6400247 L28.6000656,50.6400247 L28.6000656,59.6842455 L22.1470999,59.6842455 C22.029209,59.6842455 21.9333495,59.588386 21.9333495,59.470542 L21.9333495,47.9508476 L28.6000656,47.9508476 L28.6000656,49.5733351 Z M28.6000656,46.8842518 L20.28044,46.8842518 C20.1625491,46.8842049 20.0666896,46.7883453 20.0666896,46.6705014 L20.0666896,43.6314017 C20.0666896,43.5134639 20.162596,43.4176044 20.28044,43.4176044 L28.6000656,43.4176044 L28.6000656,46.8842518 Z M32.3332448,59.6841986 L29.6667552,59.6841986 L29.6667552,43.4175106 L32.3332448,43.4175106 L32.3332448,59.6841986 Z M40.0666974,59.4704951 C40.0666974,59.588386 39.970791,59.6842455 39.852947,59.6842455 L33.3999344,59.6842455 L33.3999344,50.6399779 L35.432204,50.6399779 C35.726767,50.6399779 35.9655488,50.4011493 35.9655488,50.1066331 C35.9655488,49.8121169 35.726767,49.5732883 35.432204,49.5732883 L33.3999344,49.5732883 L33.3999344,47.9508476 L40.0667443,47.9508476 L40.0667443,59.4704951 L40.0666974,59.4704951 Z M41.9333573,46.6705014 C41.9333573,46.7883453 41.8374509,46.8842518 41.7196069,46.8842518 L33.3999344,46.8842518 L33.3999344,43.4175575 L41.7196537,43.4175575 C41.8374977,43.4175575 41.9334042,43.5134639 41.9334042,43.6313548 L41.9334042,46.6705014 L41.9333573,46.6705014 Z" id="Shape" fill="#FFFFFF" fill-rule="nonzero"></path>
                    </g>
                </g>
            </g>
        </g>
    </g>
</svg>