<?xml version="1.0" encoding="UTF-8"?>
<svg width="308px" height="81px" viewBox="0 0 308 81" version="1.1" xmlns="http://www.w3.org/2000/svg" xmlns:xlink="http://www.w3.org/1999/xlink">
    <!-- Generator: Sketch 49.3 (51167) - http://www.bohemiancoding.com/sketch -->
    <title>Icono-suscribete</title>
    <desc>Created with Sketch.</desc>
    <defs>
        <path d="M11,12.5857864 L21.2928932,2.29289322 C21.6834175,1.90236893 22.3165825,1.90236893 22.7071068,2.29289322 C23.0976311,2.68341751 23.0976311,3.31658249 22.7071068,3.70710678 L11.7071068,14.7071068 C11.3165825,15.0976311 10.6834175,15.0976311 10.2928932,14.7071068 L7.29289322,11.7071068 C6.90236893,11.3165825 6.90236893,10.6834175 7.29289322,10.2928932 C7.68341751,9.90236893 8.31658249,9.90236893 8.70710678,10.2928932 L11,12.5857864 Z M19,12 C19,11.4477153 19.4477153,11 20,11 C20.5522847,11 21,11.4477153 21,12 L21,19 C21,20.6568542 19.6568542,22 18,22 L4,22 C2.34314575,22 1,20.6568542 1,19 L1,5 C1,3.34314575 2.34314575,2 4,2 L15,2 C15.5522847,2 16,2.44771525 16,3 C16,3.55228475 15.5522847,4 15,4 L4,4 C3.44771525,4 3,4.44771525 3,5 L3,19 C3,19.5522847 3.44771525,20 4,20 L18,20 C18.5522847,20 19,19.5522847 19,19 L19,12 Z" id="path-1"></path>
    </defs>
    <g id="Page-1" stroke="none" stroke-width="1" fill="none" fill-rule="evenodd">
        <g id="Inicio" transform="translate(-185.000000, -637.000000)">
            <g id="Como-participar" transform="translate(186.000000, 528.000000)">
                <g id="Group-11" transform="translate(0.000000, 109.000000)">
                    <g id="Icono-suscribete">
                        <path d="M304.651,4.032 L292.793,4.032 C291.802,4.032 291,3.229 291,2.239 C291,1.248 291.802,0.446 292.793,0.446 L304.651,0.446 C305.641,0.446 306.444,1.248 306.444,2.239 C306.444,3.229 305.641,4.032 304.651,4.032" id="Fill-5" fill="#0ED9B2"></path>
                        <path d="M51.249754,25.842 C50.745754,24.99 51.028754,23.89 51.880754,23.386 L89.305754,1.25 C89.581754,1.086 89.897754,1 90.218754,1 L282,0.554 C282.99,0.554 283.793,1.357 283.793,2.347 C283.793,3.338 282.99,4.14 282,4.14 L90.708754,4.586 L53.706754,26.473 C53.419754,26.642 53.105754,26.723 52.795754,26.723 C52.182754,26.723 51.585754,26.409 51.249754,25.842 Z" id="Fill-8" fill="#0ED9B2"></path>
                        <circle id="Oval-2" fill="#0ED9B2" cx="31" cy="49" r="24"></circle>
                        <circle id="Oval-3" stroke="#0ED9B2" stroke-width="2" cx="31" cy="49" r="31"></circle>
                        <g id="check-square" transform="translate(19.000000, 37.000000)">
                            <mask id="mask-2" fill="white">
                                <use xlink:href="#path-1"></use>
                            </mask>
                            <use id="Combined-Shape" fill="#000000" fill-rule="nonzero" xlink:href="#path-1"></use>
                            <g id="COLOR/-black" mask="url(#mask-2)" fill="#FFFFFF" fill-rule="evenodd">
                                <rect id="Rectangle" x="0" y="0" width="24" height="24"></rect>
                            </g>
                        </g>
                    </g>
                </g>
            </g>
        </g>
    </g>
</svg>