<?xml version="1.0" encoding="UTF-8"?>
<svg width="308px" height="81px" viewBox="0 0 308 81" version="1.1" xmlns="http://www.w3.org/2000/svg" xmlns:xlink="http://www.w3.org/1999/xlink">
    <!-- Generator: Sketch 49.3 (51167) - http://www.bohemiancoding.com/sketch -->
    <title>icono-crea-perfil</title>
    <desc>Created with Sketch.</desc>
    <defs>
        <path d="M19,9 L14,9 C13.4477153,9 13,8.55228475 13,8 L13,3 L6,3 C5.44771525,3 5,3.44771525 5,4 L5,20 C5,20.5522847 5.44771525,21 6,21 L18,21 C18.5522847,21 19,20.5522847 19,20 L19,9 L20,9 C20.5522847,9 21,8.55228475 21,8 C21,7.86192881 20.9720178,7.73039322 20.921415,7.61075487 C20.9736608,7.73749915 21,7.86739176 21,8 L21,20 C21,21.6568542 19.6568542,23 18,23 L6,23 C4.34314575,23 3,21.6568542 3,20 L3,4 C3,2.34314575 4.34314575,1 6,1 L14,1 C14.2652165,1 14.5195704,1.10535684 14.7071068,1.29289322 L20.7071068,7.29289322 C20.800875,7.38666141 20.8740983,7.49713398 20.9238795,7.61731657 Z M15,4.41421356 L15,7 L17.5857864,7 L15,4.41421356 Z M16,12 C16.5522847,12 17,12.4477153 17,13 C17,13.5522847 16.5522847,14 16,14 L8,14 C7.44771525,14 7,13.5522847 7,13 C7,12.4477153 7.44771525,12 8,12 L16,12 Z M16,16 C16.5522847,16 17,16.4477153 17,17 C17,17.5522847 16.5522847,18 16,18 L8,18 C7.44771525,18 7,17.5522847 7,17 C7,16.4477153 7.44771525,16 8,16 L16,16 Z M10,8 C10.5522847,8 11,8.44771525 11,9 C11,9.55228475 10.5522847,10 10,10 L8,10 C7.44771525,10 7,9.55228475 7,9 C7,8.44771525 7.44771525,8 8,8 L10,8 Z" id="path-1"></path>
    </defs>
    <g id="Page-1" stroke="none" stroke-width="1" fill="none" fill-rule="evenodd">
        <g id="Inicio" transform="translate(-586.000000, -637.000000)">
            <g id="Como-participar" transform="translate(186.000000, 528.000000)">
                <g id="Group-9" transform="translate(401.000000, 109.000000)">
                    <g id="icono-crea-perfil">
                        <path d="M304.651,4.032 L292.793,4.032 C291.802,4.032 291,3.229 291,2.239 C291,1.248 291.802,0.446 292.793,0.446 L304.651,0.446 C305.641,0.446 306.444,1.248 306.444,2.239 C306.444,3.229 305.641,4.032 304.651,4.032" id="Fill-5" fill="#0ED9B2"></path>
                        <path d="M51.249754,25.842 C50.745754,24.99 51.028754,23.89 51.880754,23.386 L89.305754,1.25 C89.581754,1.086 89.897754,1 90.218754,1 L282,0.554 C282.99,0.554 283.793,1.357 283.793,2.347 C283.793,3.338 282.99,4.14 282,4.14 L90.708754,4.586 L53.706754,26.473 C53.419754,26.642 53.105754,26.723 52.795754,26.723 C52.182754,26.723 51.585754,26.409 51.249754,25.842 Z" id="Fill-8" fill="#0ED9B2"></path>
                        <circle id="Oval-2" fill="#0ED9B2" cx="31" cy="49" r="24"></circle>
                        <circle id="Oval-3" stroke="#0ED9B2" stroke-width="2" cx="31" cy="49" r="31"></circle>
                        <g id="file-text" transform="translate(19.000000, 37.000000)">
                            <mask id="mask-2" fill="white">
                                <use xlink:href="#path-1"></use>
                            </mask>
                            <use id="Combined-Shape" fill="#000000" fill-rule="nonzero" xlink:href="#path-1"></use>
                            <g id="COLOR/-black" mask="url(#mask-2)" fill="#FFFFFF" fill-rule="evenodd">
                                <rect id="Rectangle" x="0" y="0" width="24" height="24"></rect>
                            </g>
                        </g>
                    </g>
                </g>
            </g>
        </g>
    </g>
</svg>