<?xml version="1.0" encoding="UTF-8"?>
<svg width="16px" height="18px" viewBox="0 0 16 18" version="1.1" xmlns="http://www.w3.org/2000/svg" xmlns:xlink="http://www.w3.org/1999/xlink">
    <!-- Generator: Sketch 49.3 (51167) - http://www.bohemiancoding.com/sketch -->
    <title>Polla</title>
    <desc>Created with Sketch.</desc>
    <defs></defs>
    <g id="Page-1" stroke="none" stroke-width="1" fill="none" fill-rule="evenodd" opacity="0.4">
        <g id="Inicio" transform="translate(-28.000000, -860.000000)" fill="#0ED9B2">
            <g id="Sidebar-01">
                <g id="secciones" transform="translate(27.000000, 471.000000)">
                    <g id="Menu" transform="translate(0.000000, 251.000000)">
                        <g id="Polla" transform="translate(1.000000, 138.000000)">
                            <path d="M11.5885,10.454 L11.5885,10.454 L15.6845,6.361 L11.149,1.8315 L8.1145,4.863 L7.3765,4.125 L10.4435,1.062 L9.3835,0 L5.2545,4.125 L7.053,5.9225 L0.635,12.334 L0,17.5005 L0.9065,17.39 L14.623,17.39 L14.623,15.89 L6.147,15.89 L11.5885,10.454 L11.5885,10.454 Z M11.149,3.9515 L13.5615,6.361 L11.588,8.333 L9.1755,5.9225 L11.149,3.9515 L11.149,3.9515 Z M2.061,13.031 L8.1145,6.983 L10.527,9.3935 L4.4745,15.44 L1.723,15.778 L2.061,13.031 L2.061,13.031 Z" id="Imported-Layers"></path>
                        </g>
                    </g>
                </g>
            </g>
        </g>
    </g>
</svg>