<?xml version="1.0" encoding="UTF-8"?>
<svg width="18px" height="20px" viewBox="0 0 18 20" version="1.1" xmlns="http://www.w3.org/2000/svg" xmlns:xlink="http://www.w3.org/1999/xlink">
    <!-- Generator: Sketch 49.3 (51167) - http://www.bohemiancoding.com/sketch -->
    <title>Group 23</title>
    <desc>Created with Sketch.</desc>
    <defs></defs>
    <g id="Page-1" stroke="none" stroke-width="1" fill="none" fill-rule="evenodd" opacity="0.4">
        <g id="Inicio" transform="translate(-26.000000, -905.000000)">
            <g id="Sidebar-01">
                <g id="secciones" transform="translate(27.000000, 471.000000)">
                    <g id="Menu" transform="translate(0.000000, 251.000000)">
                        <g id="Group-23" transform="translate(0.000000, 184.000000)">
                            <path d="M14.2222222,1.77777778 L10.5066667,1.77777778 C10.1333333,0.746666667 9.15555556,0 8,0 C6.84444444,0 5.86666667,0.746666667 5.49333333,1.77777778 L1.77777778,1.77777778 C0.8,1.77777778 0,2.57777778 0,3.55555556 L0,16 C0,16.9777778 0.8,17.7777778 1.77777778,17.7777778 L14.2222222,17.7777778 C15.2,17.7777778 16,16.9777778 16,16 L16,3.55555556 C16,2.57777778 15.2,1.77777778 14.2222222,1.77777778 Z M8,1.77777778 C8.48888889,1.77777778 8.88888889,2.17777778 8.88888889,2.66666667 C8.88888889,3.15555556 8.48888889,3.55555556 8,3.55555556 C7.51111111,3.55555556 7.11111111,3.15555556 7.11111111,2.66666667 C7.11111111,2.17777778 7.51111111,1.77777778 8,1.77777778 Z" id="Shape" stroke="#0ED9B2"></path>
                            <path d="M14.2222222,1.77777778 L10.5066667,1.77777778 C10.1333333,0.746666667 9.15555556,0 8,0 C6.84444444,0 5.86666667,0.746666667 5.49333333,1.77777778 L1.77777778,1.77777778 C0.8,1.77777778 0,2.57777778 0,3.55555556 L0,16 C0,16.9777778 0.8,17.7777778 1.77777778,17.7777778 L14.2222222,17.7777778 C15.2,17.7777778 16,16.9777778 16,16 L16,3.55555556 C16,2.57777778 15.2,1.77777778 14.2222222,1.77777778 Z" id="Path" stroke="#0ED9B2"></path>
                            <polygon id="Path" fill="#0ED9B2" points="9.77777778 14.2222222 3.55555556 14.2222222 3.55555556 12.4444444 9.77777778 12.4444444"></polygon>
                            <polygon id="Path" fill="#0ED9B2" points="12.4444444 10.6666667 3.55555556 10.6666667 3.55555556 8.88888889 12.4444444 8.88888889"></polygon>
                            <polygon id="Path" fill="#0ED9B2" points="12.4444444 7.11111111 3.55555556 7.11111111 3.55555556 5.33333333 12.4444444 5.33333333"></polygon>
                        </g>
                    </g>
                </g>
            </g>
        </g>
    </g>
</svg>