<?xml version="1.0" encoding="UTF-8"?>
<svg width="52px" height="52px" viewBox="0 0 52 52" version="1.1" xmlns="http://www.w3.org/2000/svg" xmlns:xlink="http://www.w3.org/1999/xlink">
    <!-- Generator: Sketch 49.3 (51167) - http://www.bohemiancoding.com/sketch -->
    <title>Group 5</title>
    <desc>Created with Sketch.</desc>
    <defs>
        <rect id="path-1" x="0" y="0" width="32.7305458" height="32.816841" rx="16.3652729"></rect>
        <path d="M28.6555928,16.4779342 C28.6555928,9.65761612 23.0982172,4.10024053 16.2778992,4.10024053 C9.45758112,4.10024053 3.90311758,9.65761612 3.90311758,16.4779342 C3.90311758,20.2345268 5.6074792,23.6139676 8.25898699,25.8854521 C8.29114095,25.9176061 8.3232949,25.94976 8.38469074,25.9790019 C10.5304715,27.7798254 13.2784816,28.8527158 16.3100531,28.8527158 C19.2773168,28.8527158 22.0253269,27.7798254 24.1711076,26.0433098 C24.2968114,26.0111559 24.3932732,25.9176061 24.4546691,25.8211442 C27.0155796,23.5175058 28.6555928,20.2023728 28.6555928,16.4779342 Z M5.04031586,16.4779342 C5.04031586,10.2890874 10.0919644,5.23743881 16.2808112,5.23743881 C22.4696581,5.23743881 27.5213066,10.2890874 27.5213066,16.4779342 C27.5213066,19.5095057 26.3227125,22.2545633 24.3640313,24.2775928 C24.0483159,22.7924848 23.1011293,20.2666807 20.1952615,18.6266674 C20.8588867,17.8051846 21.2359979,16.7322942 21.2359979,15.5950959 C21.2359979,12.8792398 19.0259093,10.6691511 16.3100531,10.6691511 C13.594197,10.6691511 11.3841083,12.8792398 11.3841083,15.5950959 C11.3841083,16.7322942 11.7933735,17.7730306 12.4248448,18.6266674 C9.49268757,20.2666807 8.54550094,22.7925252 8.26189905,24.2775928 C6.27106394,22.2867577 5.04031586,19.5095057 5.04031586,16.4779342 Z M12.4920647,15.6242973 C12.4920647,13.5399124 14.1964263,11.8355508 16.2808112,11.8355508 C18.3651961,11.8355508 20.0695578,13.5399124 20.0695578,15.6242973 C20.0695578,17.7086823 18.3651961,19.4130439 16.2808112,19.4130439 C14.1964263,19.4130439 12.4920647,17.7086823 12.4920647,15.6242973 Z M9.27048153,25.2540214 C9.33478943,24.3389887 9.83760442,21.2431092 13.2492397,19.5065937 C14.1028765,20.1702189 15.143613,20.5473301 16.2808112,20.5473301 C17.4180095,20.5473301 18.4908999,20.1380649 19.3445367,19.4744397 C22.7239776,21.2109553 23.258987,24.2425268 23.3554488,25.2218674 C21.4289216,26.7683713 18.9674255,27.7155175 16.3158772,27.7155175 C13.6293034,27.7184296 11.1970087,26.8033969 9.27048153,25.2540214 Z" id="path-3"></path>
    </defs>
    <g id="Page-1" stroke="none" stroke-width="1" fill="none" fill-rule="evenodd">
        <g id="Inicio" transform="translate(-10.000000, -239.000000)">
            <g id="Sidebar-01">
                <g id="Profile" transform="translate(11.000000, 240.000000)">
                    <g id="Group-5">
                        <g id="Avatar" transform="translate(8.473120, 8.275997)">
                            <mask id="mask-2" fill="white">
                                <use xlink:href="#path-1"></use>
                            </mask>
                            <use id="Mask" fill="#0ED9B2" opacity="0.208559783" xlink:href="#path-1"></use>
                            <mask id="mask-4" fill="white">
                                <use xlink:href="#path-3"></use>
                            </mask>
                            <use id="Shape" fill="#0ED9B2" fill-rule="nonzero" xlink:href="#path-3"></use>
                        </g>
                        <g id="Group" opacity="0.2" transform="translate(0.290484, 0.071787)" stroke="#0ED9B2" stroke-linecap="round" stroke-linejoin="round" stroke-width="2">
                            <ellipse id="Oval" cx="24.5479093" cy="24.6126308" rx="24.5479093" ry="24.6126308"></ellipse>
                        </g>
                    </g>
                </g>
            </g>
        </g>
    </g>
</svg>